<?xml version="1.0" encoding="utf-8"?>
<!-- Generator: Adobe Illustrator 23.0.3, SVG Export Plug-In . SVG Version: 6.00 Build 0)  -->
<svg version="1.1" id="DELETE_THIS_LAYER" xmlns="http://www.w3.org/2000/svg" xmlns:xlink="http://www.w3.org/1999/xlink" x="0px"
	 y="0px" viewBox="0 0 390.37 133.08" style="enable-background:new 0 0 390.37 133.08;" xml:space="preserve">
<style type="text/css">
	.st0{fill:#FFFFFF;}
	.st1{fill:#FED206;}
</style>
<g>
	<g>
		<path class="st0" d="M76.01,44.51c-0.95-0.21-1.58-0.32-2.43-0.32c-3.05,0-4.84,1.37-5.69,5.69c2.63,3.26,4,6.95,4,11.16
			c0,8.11-5.69,16.64-18.01,16.64c-2.95,0-4.84-0.42-6.64-0.95c-1.58,0.74-3.9,1.68-3.9,4.63c0,3.9,2.64,4,13.16,4.53
			c10.11,0.63,20.22,1.16,20.22,14.01c0,13.8-14,16.11-23.59,16.11c-7.37,0-20.95-1.37-20.95-13.06c0-7.27,5.26-9.16,7.58-10
			c-2-1.26-5.69-3.37-5.69-8.63c0-6.43,5.37-9.16,7.69-10.32c-2.53-1.79-6.74-4.74-6.74-13.27c0-10.32,7.58-17.06,18.22-17.06
			c4.95,0,7.69,1.26,9.9,2.21c0.74-4,1.69-9.58,9.59-9.58c1.37,0,2.32,0.21,3.37,0.32L76.01,44.51z M41.88,101.27
			c0,5.58,4.63,7.27,12.53,7.27c4.53,0,12.32-0.74,12.32-7.16c0-4.74-3.79-5.79-6.21-6.01c-2-0.21-11.9-0.63-14.11-0.74
			C44.94,95.37,41.88,97.06,41.88,101.27z M46.1,60.94c0,1.58,0,10.01,7.37,10.01c7.37,0,7.37-8.74,7.37-10.01
			c0-2.42-0.42-10.22-7.06-10.22C47.15,50.72,46.1,56.52,46.1,60.94z"/>
		<path class="st0" d="M88.11,72.52c0,5.79,0,17.48,10.01,17.48c6.95,0,8.32-6,9.16-9.69l9.69,1.37c-0.95,3.9-3.9,16.43-19.17,16.43
			c-15.38,0-20.64-12.85-20.64-26.43c0-19.17,9.16-28.01,20.75-28.01c8.42,0,13.58,4.95,15.69,9.06c3.58,7.06,3.69,13.48,3.79,19.8
			H88.11z M106.53,65.26c0-2,0-4.32-0.95-7.37c-1.68-5.27-5.9-6.32-8-6.32c-6.53,0-8.74,6.63-9.27,13.69H106.53z"/>
		<path class="st0" d="M144.44,53.57h-9.9v22.96c0,9.06,0,12.53,7.16,12.53c1.89,0,3.16-0.21,4.42-0.32v8.42
			c-2.1,0.42-4.53,0.95-8,0.95c-14.11,0-14.11-9.48-14.11-20.85V53.57h-6.74v-8.64h7.06l0.53-13.58l9.69-0.84v14.43h9.9V53.57z"/>
		<path class="st1" d="M173.8,44.93v8.64h-9.37v43.28H154V53.57h-6.84v-8.64H154c0.21-9.58,0.32-20.32,15.06-20.32
			c3.05,0,4.63,0.32,6.32,0.63v8.53c-0.94-0.21-2.21-0.42-4-0.42c-6.84,0-6.95,3.47-6.95,11.58H173.8z"/>
		<path class="st1" d="M187.17,44.93v32.96c0,7.27,0,11.58,6,11.58c8.64,0,8.64-10,8.64-19.59V44.93h10.74v51.92h-9.9v-7.79
			c-1.89,3.79-4.53,9.05-13.16,9.05c-13.06,0-13.06-11.37-13.06-20.01V44.93H187.17z"/>
		<path class="st1" d="M245.4,59.36c-0.73-2.32-2.53-7.79-8.74-7.79c-4.42,0-6.74,3.05-6.74,6.42c0,4.74,3.26,5.79,10.42,8.11
			c6.22,2,15.38,5.05,15.38,15.59c0,8-6,16.43-19.06,16.43c-16.01,0-18.01-11.27-18.74-15.06l9.16-1.79c0.42,2.42,1.68,8.95,10,8.95
			c7.06,0,8.11-4.95,8.11-6.84c0-5.05-4.74-6.53-9.16-7.9c-7.16-2.32-16.32-5.16-16.32-15.8c0-8.21,6.32-16.01,17.27-16.01
			c13.06,0,15.9,9.9,16.85,13.37L245.4,59.36z"/>
		<path class="st1" d="M269.62,72.52c0,5.79,0,17.48,10,17.48c6.95,0,8.32-6,9.16-9.69l9.69,1.37c-0.95,3.9-3.9,16.43-19.17,16.43
			c-15.38,0-20.64-12.85-20.64-26.43c0-19.17,9.16-28.01,20.75-28.01c8.42,0,13.58,4.95,15.69,9.06c3.58,7.06,3.69,13.48,3.79,19.8
			H269.62z M288.04,65.26c0-2,0-4.32-0.95-7.37c-1.68-5.27-5.9-6.32-8-6.32c-6.53,0-8.74,6.63-9.27,13.69H288.04z"/>
		<path class="st1" d="M342.9,26.61v70.24H333v-7.9c-1.37,3.05-4,8.84-13.06,8.84c-14.64,0-17.38-16.64-17.38-26.64
			c0-17.8,7.48-27.17,17.8-27.17c8.11,0,10.63,4.63,11.9,6.95V26.61H342.9z M332.26,66.31c0-3.37,0-6.74-2.21-10.11
			c-1.16-1.68-3.47-4.32-7.16-4.32c-7.9,0-8.95,10-8.95,18.32c0,8.85,0.94,19.48,9.06,19.48c3.05,0,5.48-1.69,7.06-4.11
			c1.37-2.11,2.21-4.63,2.21-10.32V66.31z"/>
	</g>
	<g>
		<path class="st1" d="M363.83,35.61c0,4.54-3.47,8.1-7.99,8.1c-4.47,0-8.04-3.56-8.04-8.1c0-4.44,3.57-8,8.04-8
			C360.36,27.61,363.83,31.17,363.83,35.61z M349.79,35.61c0,3.56,2.57,6.39,6.09,6.39c3.43,0,5.95-2.83,5.95-6.34
			c0-3.56-2.52-6.44-5.99-6.44C352.36,29.22,349.79,32.09,349.79,35.61z M354.6,39.8h-1.81v-8c0.71-0.15,1.71-0.24,3-0.24
			c1.47,0,2.14,0.24,2.71,0.59c0.43,0.34,0.76,0.98,0.76,1.76c0,0.88-0.67,1.56-1.62,1.85v0.1c0.76,0.29,1.19,0.88,1.43,1.95
			c0.24,1.22,0.38,1.71,0.57,2h-1.95c-0.24-0.29-0.38-1.02-0.62-1.95c-0.14-0.88-0.62-1.27-1.62-1.27h-0.86V39.8z M354.65,35.26
			h0.86c1,0,1.81-0.34,1.81-1.17c0-0.73-0.52-1.22-1.67-1.22c-0.48,0-0.81,0.05-1,0.1V35.26z"/>
	</g>
</g>
</svg>
